<svg width="108" height="108" viewBox="0 0 108 108" fill="none" xmlns="http://www.w3.org/2000/svg">
<g filter="url(#filter0_d_102_2928)">
<path d="M46.1875 100C35.0586 100 24.3805 94.7883 16.4789 85.4999C8.57742 76.2116 4.09264 63.5992 4.00142 50.4098C3.9102 37.2204 8.21993 24.5226 15.9919 15.082C23.7639 5.64144 34.3685 0.222938 45.4959 0.00671864L45.6884 13.9239C37.6587 14.08 30.0062 17.9901 24.3978 24.8025C18.7894 31.615 15.6794 40.778 15.7452 50.2957C15.8111 59.8134 19.0474 68.9148 24.7493 75.6174C30.4511 82.32 38.1567 86.0809 46.1875 86.0809L46.1875 100Z" fill="black"/>
<path d="M62.8542 0C68.2931 7.88146e-08 73.678 1.31034 78.6975 3.85525C83.717 6.40015 88.2715 10.1291 92.0976 14.8265C95.9236 19.5238 98.9454 25.0964 100.988 31.2218C103.031 37.3472 104.054 43.904 103.998 50.5129C103.942 57.1218 102.809 63.6517 100.663 69.7249C98.5173 75.7981 95.4022 81.2942 91.4976 85.8952C87.593 90.4961 82.9765 94.1108 77.9151 96.53C72.8537 98.9492 67.4478 100.125 62.0101 99.9895L62.2451 86.0733C66.169 86.1712 70.07 85.3227 73.7224 83.5769C77.3748 81.8311 80.7062 79.2228 83.5238 75.9026C86.3414 72.5825 88.5894 68.6164 90.1377 64.2339C91.686 59.8513 92.504 55.1392 92.5442 50.3701C92.5845 45.601 91.8463 40.8695 90.3723 36.4493C88.8983 32.0291 86.7177 28.0078 83.9567 24.6181C81.1958 21.2284 77.9092 18.5375 74.287 16.7011C70.6648 14.8647 66.779 13.9191 62.8542 13.9191L62.8542 0Z" fill="black"/>
<rect x="32.125" y="11" width="13.5417" height="62" fill="black"/>
<rect x="62.3334" y="24" width="13.5417" height="62" fill="black"/>
<rect x="75.875" y="42" width="13" height="43.75" transform="rotate(90 75.875 42)" fill="black"/>
</g>
<defs>
<filter id="filter0_d_102_2928" x="0" y="0" width="108" height="108" filterUnits="userSpaceOnUse" color-interpolation-filters="sRGB">
<feFlood flood-opacity="0" result="BackgroundImageFix"/>
<feColorMatrix in="SourceAlpha" type="matrix" values="0 0 0 0 0 0 0 0 0 0 0 0 0 0 0 0 0 0 127 0" result="hardAlpha"/>
<feOffset dy="4"/>
<feGaussianBlur stdDeviation="2"/>
<feComposite in2="hardAlpha" operator="out"/>
<feColorMatrix type="matrix" values="0 0 0 0 0 0 0 0 0 0 0 0 0 0 0 0 0 0 0.25 0"/>
<feBlend mode="normal" in2="BackgroundImageFix" result="effect1_dropShadow_102_2928"/>
<feBlend mode="normal" in="SourceGraphic" in2="effect1_dropShadow_102_2928" result="shape"/>
</filter>
</defs>
</svg>
