<svg width="108" height="108" viewBox="0 0 108 108" fill="none" xmlns="http://www.w3.org/2000/svg">
<g filter="url(#filter0_d_102_2934)">
<path d="M46.1875 100C35.0586 100 24.3805 94.7883 16.4789 85.4999C8.57742 76.2116 4.09264 63.5992 4.00142 50.4098C3.9102 37.2204 8.21993 24.5226 15.9919 15.082C23.7639 5.64144 34.3685 0.222938 45.4959 0.00671864L45.6884 13.9239C37.6587 14.08 30.0062 17.9901 24.3978 24.8025C18.7894 31.615 15.6794 40.778 15.7452 50.2957C15.8111 59.8134 19.0474 68.9148 24.7493 75.6174C30.4511 82.32 38.1567 86.0809 46.1875 86.0809L46.1875 100Z" fill="#FF9900"/>
<path d="M62.8541 0C68.293 7.88146e-08 73.6779 1.31034 78.6974 3.85525C83.7169 6.40015 88.2714 10.1291 92.0975 14.8265C95.9236 19.5238 98.9453 25.0964 100.988 31.2218C103.031 37.3472 104.054 43.904 103.998 50.5129C103.942 57.1218 102.809 63.6517 100.663 69.7249C98.5173 75.7981 95.4021 81.2942 91.4975 85.8952C87.5929 90.4961 82.9765 94.1108 77.915 96.53C72.8536 98.9492 67.4477 100.125 62.01 99.9895L62.245 86.0733C66.169 86.1712 70.07 85.3227 73.7224 83.5769C77.3748 81.8311 80.7061 79.2228 83.5237 75.9026C86.3413 72.5825 88.5893 68.6164 90.1376 64.2339C91.686 59.8513 92.5039 55.1392 92.5442 50.3701C92.5844 45.601 91.8462 40.8695 90.3722 36.4493C88.8982 32.0291 86.7177 28.0078 83.9567 24.6181C81.1957 21.2284 77.9091 18.5375 74.2869 16.7011C70.6648 14.8647 66.7789 13.9191 62.8541 13.9191L62.8541 0Z" fill="#FF9900"/>
<rect x="32.125" y="11" width="13.5417" height="62" fill="#FF9900"/>
<rect x="62.3334" y="24" width="13.5417" height="62" fill="#FF9900"/>
<rect x="75.875" y="42" width="13" height="43.75" transform="rotate(90 75.875 42)" fill="#FF9900"/>
</g>
<defs>
<filter id="filter0_d_102_2934" x="0" y="0" width="108" height="108" filterUnits="userSpaceOnUse" color-interpolation-filters="sRGB">
<feFlood flood-opacity="0" result="BackgroundImageFix"/>
<feColorMatrix in="SourceAlpha" type="matrix" values="0 0 0 0 0 0 0 0 0 0 0 0 0 0 0 0 0 0 127 0" result="hardAlpha"/>
<feOffset dy="4"/>
<feGaussianBlur stdDeviation="2"/>
<feComposite in2="hardAlpha" operator="out"/>
<feColorMatrix type="matrix" values="0 0 0 0 0 0 0 0 0 0 0 0 0 0 0 0 0 0 0.25 0"/>
<feBlend mode="normal" in2="BackgroundImageFix" result="effect1_dropShadow_102_2934"/>
<feBlend mode="normal" in="SourceGraphic" in2="effect1_dropShadow_102_2934" result="shape"/>
</filter>
</defs>
</svg>
